<svg width="40" height="40" viewBox="0 0 40 40" fill="none" xmlns="http://www.w3.org/2000/svg">
<g clip-path="url(#clip0_1073_5004)">
<rect width="40" height="40" rx="20" fill="white"/>
<path d="M0 20C0 8.95431 8.95431 0 20 0C31.0457 0 40 8.95431 40 20C40 31.0457 31.0457 40 20 40C8.95431 40 0 31.0457 0 20Z" fill="#FF56E0"/>
<path fill-rule="evenodd" clip-rule="evenodd" d="M27.4735 9.02158C26.4909 8.86762 25.5719 9.55407 25.4207 10.5548C25.0879 12.7579 23.8467 16.2054 19.255 18.3311C11.8696 21.7504 11 27.4005 11 29.1667C11 30.1792 11.8059 31 12.8 31C13.7941 31 14.5999 30.1792 14.5999 29.1667C14.5999 28.4884 14.9304 24.3609 20.7447 21.6691C26.7129 18.9061 28.5116 14.2054 28.9788 11.1123C29.13 10.1116 28.456 9.17554 27.4735 9.02158Z" fill="#E6E6E6"/>
<path fill-rule="evenodd" clip-rule="evenodd" d="M12.5265 9.02158C13.5091 8.86762 14.4281 9.55407 14.5793 10.5548C14.9121 12.7579 16.1533 16.2054 20.745 18.3311C28.1304 21.7504 29 27.4005 29 29.1667C29 30.1792 28.1941 31 27.2 31C26.2059 31 25.4001 30.1792 25.4001 29.1667C25.4001 28.4884 25.0696 24.3609 19.2553 21.6691C13.2871 18.9061 11.4884 14.2054 11.0212 11.1123C10.87 10.1116 11.544 9.17554 12.5265 9.02158Z" fill="white"/>
<path d="M22 11C22 12.1046 21.1046 13 20 13C18.8954 13 18 12.1046 18 11C18 9.89543 18.8954 9 20 9C21.1046 9 22 9.89543 22 11Z" fill="#363636"/>
<path d="M22 29C22 30.1046 21.1046 31 20 31C18.8954 31 18 30.1046 18 29C18 27.8954 18.8954 27 20 27C21.1046 27 22 27.8954 22 29Z" fill="#363636"/>
</g>
<defs>
<clipPath id="clip0_1073_5004">
<rect width="40" height="40" rx="20" fill="white"/>
</clipPath>
</defs>
</svg>
