<svg id="Layer_1" data-name="Layer 1" xmlns="http://www.w3.org/2000/svg" xmlns:xlink="http://www.w3.org/1999/xlink" viewBox="0 0 600 600"><defs><style>.cls-1{fill:none;}.cls-2{clip-path:url(#clip-path);}.cls-3{fill:#862ae9;}.cls-4{fill:#fff;}</style><clipPath id="clip-path" transform="translate(0 -0.13)"><rect class="cls-1" width="600" height="600"/></clipPath></defs><title>Logo_Solid</title><g class="cls-2"><path class="cls-3" d="M600,300.13c0,165.69-134.31,300-300,300S0,465.81,0,300.13,134.31.13,300,.13s300,134.31,300,300" transform="translate(0 -0.13)"/><path class="cls-4" d="M471.11,421.21a17.75,17.75,0,0,0,2.07-8,7.24,7.24,0,0,0,0-1.1V267.17l0-.58v-3.12a95.36,95.36,0,0,0-142.61-81.72l-1.49.85L202.44,255.72l-1.11.65a18.18,18.18,0,0,0-5.77,5.75c-.15.21-.26.41-.39.63a18.33,18.33,0,0,0,6.71,25L445.72,428.58a18.33,18.33,0,0,0,25-6.71c.13-.22.24-.42.35-.65M212.54,271.93l14.74-8.53,62.84-36.26,49.38-28.51,1.6-.91a76.34,76.34,0,0,1,113,65.26V411.41Z" transform="translate(0 -0.13)"/><path class="cls-4" d="M128.89,421.21a17.77,17.77,0,0,1-2.08-8,7.5,7.5,0,0,1,0-1.1V267.17l0-.58v-3.12a95.36,95.36,0,0,1,142.61-81.72l1.49.85,126.65,73.11,1.11.65a18.17,18.17,0,0,1,5.77,5.75c.15.21.26.41.39.63a18.33,18.33,0,0,1-6.71,25L154.28,428.58a18.33,18.33,0,0,1-25-6.71c-.13-.22-.24-.42-.35-.65M387.46,271.93l-14.74-8.53-62.83-36.26L260.5,198.62l-1.6-.91a76.34,76.34,0,0,0-113,65.26V411.41Z" transform="translate(0 -0.13)"/></g></svg>