<svg width="32" height="32" viewBox="0 0 32 32" fill="none" xmlns="http://www.w3.org/2000/svg">
<rect width="32" height="32" rx="16" fill="#0F1D27"/>
<path d="M8 13.3829V8.73709C8 8.41971 8.3519 8.22874 8.618 8.40171L23.818 18.2817C23.9315 18.3555 24 18.4817 24 18.6171V23.2629C24 23.5803 23.6481 23.7713 23.382 23.5983L8.182 13.7183C8.06849 13.6445 8 13.5183 8 13.3829Z" fill="white"/>
<path d="M8 22.3772V15.9329C8 15.6164 8.3501 15.4253 8.6163 15.5964L13.1273 18.4964C13.3587 18.6451 13.3744 18.9775 13.1582 19.1474L8.64713 22.6918C8.38468 22.898 8 22.711 8 22.3772Z" fill="#00C6A2"/>
<path d="M24 9.63464V16.0784C24 16.3925 23.6544 16.5841 23.388 16.4176L18.8774 13.5984C18.6439 13.4525 18.6242 13.1199 18.8388 12.9474L23.3494 9.32283C23.6112 9.11249 24 9.29883 24 9.63464Z" fill="#00C6A2"/>
</svg>
