<svg width="40" height="40" viewBox="0 0 40 40" fill="none" xmlns="http://www.w3.org/2000/svg">
<path d="M18.0308 1.57166L33.6041 11.358C39.877 15.2999 39.9171 24.4054 33.6793 28.4022L27.7248 32.2174L18.106 38.3804C11.3642 42.7 2.5 37.873 2.5 29.8822V20.0958V10.1176C2.5 2.16676 11.2851 -2.66733 18.0308 1.57166Z" fill="#20BFA9"/>
<path d="M24.3985 22L26.4009 25.2634C26.5173 25.4669 26.6402 25.6069 26.7695 25.6832C26.8989 25.7595 27.0476 25.7977 27.2158 25.7977C27.3449 25.7977 27.6094 25.6032 27.8634 25.4017C28.0853 25.2258 28.38 25.3714 28.38 25.6546C28.38 25.7465 28.3448 25.8349 28.2812 25.9013C27.7527 26.4535 27.1842 27 26.5755 27C25.7088 27 25.0168 26.5547 24.4994 25.6641L22.9054 23.5C21.7671 24.7977 21.2203 25.1616 21.2203 25.5305C21.2203 25.7341 21.3432 25.9377 21.5889 26.1412C21.991 26.2912 22.0789 26.7671 21.6645 26.8784C21.2671 26.9851 20.8095 27 20.417 27C19.8514 27 19.2588 26.9799 18.8318 26.7003C18.5419 26.5104 18.6439 26.1066 18.9307 25.9122C20.6899 24.1819 21.8865 22.986 22.5203 22.3244L20.4054 18.7366C20.289 18.5331 20.1661 18.3931 20.0367 18.3168C19.9074 18.2405 19.7586 18.2023 19.5904 18.2023C19.4613 18.2023 19.1969 18.3968 18.9428 18.5983C18.7209 18.7742 18.4263 18.6286 18.4263 18.3454C18.4263 18.2535 18.4615 18.1651 18.525 18.0987C19.0535 17.5465 19.6221 17 20.2307 17C21.0974 17 21.7894 17.4453 22.3069 18.3359L23.8203 20.9313C24.9586 19.659 25.5277 18.8321 25.5277 18.4504C25.5277 18.2468 25.4049 18.0433 25.1591 17.8397C24.8246 17.6849 24.7339 17.2363 25.0836 17.1197C25.418 17.0083 25.8588 17 26.527 17C27.2962 17 27.6277 17.0436 27.9291 17.2092C28.1897 17.3523 28.1949 17.7161 27.9889 17.9304C26.7506 19.2188 25.6022 20.725 24.3985 22Z" fill="white"/>
<path d="M17.5639 5.35708C17.0814 5.04255 16.4964 4.93578 15.809 5.03688C14.9427 5.16429 14.1857 5.59523 13.5377 6.32968C12.8897 7.06418 12.4132 8.02704 12.1079 9.21841C11.841 10.2621 11.7148 11.6858 11.7294 13.4896C11.744 15.2934 11.8952 17.63 12.1832 20.4994C12.253 21.1081 12.3458 21.967 12.4617 23.0761C13.1532 29.701 13.0376 33.0813 12.1148 33.217C11.8228 33.2599 11.4914 32.9814 11.1205 32.3816C10.7495 31.7818 10.2816 31.5234 9.71658 31.6065C9.26462 31.673 8.93278 31.8512 8.72104 32.141C8.50936 32.4308 8.43269 32.7997 8.49113 33.2477C8.57034 33.8549 8.85388 34.318 9.34174 34.6368C9.82956 34.9557 10.4172 35.0646 11.1046 34.9635C11.9521 34.8389 12.7018 34.4065 13.3538 33.6663C14.0058 32.9262 14.4844 31.9605 14.7897 30.7691C15.0455 29.7879 15.1672 28.3851 15.1548 26.5607C15.1423 24.7363 14.9961 22.3838 14.7164 19.503C14.6417 18.7835 14.5394 17.7788 14.4095 16.4891C13.7262 10.1471 13.8647 6.90556 14.8252 6.76431C15.0982 6.72415 15.4185 7.00928 15.7861 7.61976C16.1536 8.23028 16.6199 8.49395 17.1849 8.41086C17.6275 8.34577 17.9566 8.16548 18.1724 7.86998C18.3881 7.57444 18.4662 7.19772 18.4064 6.7398C18.3272 6.13255 18.0464 5.67166 17.5639 5.35708Z" fill="white"/>
</svg>
