<svg width="40" height="40" viewBox="0 0 40 40" fill="none" xmlns="http://www.w3.org/2000/svg">
<path fill-rule="evenodd" clip-rule="evenodd" d="M22.2671 35.305C30.7882 34.0054 37.3167 26.6427 37.3167 17.7544C37.3167 15.4573 36.8805 13.2621 36.0868 11.2471L39 6.17544H33.0237C29.7692 2.39417 24.9492 0 19.5702 0C14.1912 0 9.37123 2.39417 6.11675 6.17544H0L3.00562 11.3703C2.24223 13.3514 1.82374 15.504 1.82374 17.7544C1.82374 26.6352 8.34116 33.993 16.8519 35.3018L19.5702 40L22.2671 35.305Z" fill="#1E1E1F"/>
<path fill-rule="evenodd" clip-rule="evenodd" d="M4.95142 8.74146L19.5857 34.3294L21.3023 31.3304L15.4551 21.1017H20.6294L13.5668 8.74146H4.95142ZM15.4229 8.74146L24.8213 25.1717L26.4536 22.3157L20.4559 11.83H22.237L27.3427 20.7589L29.0379 17.792L25.6274 11.83H29.1237L28.1809 13.4794L29.8425 16.3889L34.22 8.74146H15.4229ZM10.1563 11.83L13.6955 18.0169H15.5409L12.0016 11.83H10.1563Z" fill="#F6821F"/>
<path fill-rule="evenodd" clip-rule="evenodd" d="M7.583 17.0703C7.56883 17.3102 7.56163 17.5521 7.56163 17.7956C7.56163 22.5169 10.2625 26.6028 14.1926 28.571L15.5364 30.9094C9.95633 29.1998 5.89575 23.9755 5.89575 17.7956C5.89575 16.7415 6.01391 15.7151 6.23759 14.7293L7.583 17.0703ZM24.5356 6.88791C23.0056 6.17002 21.2995 5.76918 19.5004 5.76918C17.7014 5.76918 15.9952 6.17002 14.4653 6.88791H11.2629C13.5494 5.13304 16.4041 4.09106 19.5004 4.09106C22.5969 4.09106 25.4516 5.13304 27.7379 6.88791H24.5356Z" fill="#F6821F"/>
<path d="M7.56163 17.7956C7.56163 17.552 7.56883 17.3102 7.583 17.0703L6.23759 14.7292C6.01391 15.7151 5.89575 16.7414 5.89575 17.7956C5.89575 23.9755 9.95633 29.1998 15.5364 30.9093L14.1926 28.571C10.2625 26.6028 7.56163 22.5169 7.56163 17.7956Z" fill="#F6821F"/>
<path d="M31.638 17.7956C31.638 17.552 31.5954 17.3102 31.5811 17.0703L32.9115 14.7292C33.1352 15.7151 33.3038 16.7414 33.3038 17.7956C33.3038 23.9755 29.2433 29.1998 23.6631 30.9091L25.0069 28.571C28.9372 26.6028 31.638 22.5169 31.638 17.7956Z" fill="#F6821F"/>
</svg>
